<?xml version="1.0" encoding="UTF-8"?>
<svg xmlns="http://www.w3.org/2000/svg" xmlns:xlink="http://www.w3.org/1999/xlink" viewBox="0 0 778.05 1080">
  <defs>
    <style>
      .cls-1 {
        clip-path: url(#clippath);
      }

      .cls-2 {
        fill: none;
      }

      .cls-2, .cls-3, .cls-4, .cls-5, .cls-6 {
        stroke-width: 0px;
      }

      .cls-7 {
        stroke: #a07111;
        stroke-miterlimit: 10;
        stroke-width: 2.89px;
      }

      .cls-7, .cls-3 {
        fill: #c79536;
      }

      .cls-4 {
        fill: #a07111;
      }

      .cls-5 {
        fill: #f1c557;
      }

      .cls-6 {
        fill: #f1c558;
      }
    </style>
    <clipPath id="clippath">
      <rect class="cls-2" x="1737.04" y="-2444.96" width="2686.2" height="1398.05"/>
    </clipPath>
  </defs>
  <g id="Capa_2" data-name="Capa 2">
    <g class="cls-1">
      <image width="8042" height="4542" transform="translate(491.52 -2444.96) scale(.65)" xlink:href="../calendario_fondo_suba.jpg"/>
    </g>
  </g>
  <g id="Capa_6" data-name="Capa 6">
    <g>
      <g>
        <rect class="cls-3" x="350.67" y="29.31" width="68.01" height="229.16"/>
        <path class="cls-4" d="m418.99,258.78s-68.32.96-68.32.96c0,0-1.25.02-1.25.02,0,0-.01-1.28-.01-1.28-.64-57.13-1.78-172.05-2.2-229.16,0,0-.03-3.36-.03-3.36,0,0,3.5-.1,3.5-.1,15.69-.55,35.23-.73,51.01-.94,7.11-.1,14.39-.12,21.51-.14.13,20.88.12,41.81-.09,62.68-.5,56.14-2.06,115.41-4.12,171.34h0Zm-.61-.61c-2.59-76.09-4.66-152.85-4.23-228.86,0,0,4.54,4.54,4.54,4.54-9.82-.14-24.04-.12-34.01-.33-9.99-.01-24.15-.52-34.01-.74,0,0,3.47-3.47,3.47-3.47l-.99,114.58-1.22,114.58s-1.27-1.27-1.27-1.27c0,0,67.71.96,67.71.96h0Z"/>
      </g>
      <g>
        <rect class="cls-3" x="202.22" y="77.59" width="68.01" height="231.96" transform="translate(-69.18 194.04) rotate(-39.42)"/>
        <path class="cls-4" d="m336.58,261.61s-52.17,44.12-52.17,44.12l-.95.8-.82-.98c-37.22-44.27-111.96-133.4-149.01-177.79,0,0-2.16-2.58-2.16-2.58,0,0,2.64-2.3,2.64-2.3,11.77-10.38,26.75-22.93,38.81-33.11,4.33-3.65,8.68-7.29,13.05-10.9,0,0,3.48-2.87,3.48-2.87,0,0,2.9,3.5,2.9,3.5,12.53,15.07,24.98,30.26,37.28,45.52,35.71,44.22,72.59,91.55,106.95,136.59h0Zm-.86-.08c-44.54-50.6-89.44-102.27-132.26-154.17-6.08-7.33-12.09-14.71-18.11-22.11,0,0,6.38.62,6.38.62-7.68,6.12-18.65,15.17-26.48,21.34-7.72,6.34-18.99,14.93-26.73,21.03,0,0,.48-4.88.48-4.88,36.38,44.92,109.39,135.54,145.59,180.59,0,0-1.77-.17-1.77-.17,0,0,52.91-42.26,52.91-42.26h0Z"/>
      </g>
      <g>
        <rect class="cls-3" x="124.16" y="205.09" width="68.01" height="232.3" transform="translate(-196.1 373.21) rotate(-72.13)"/>
        <path class="cls-4" d="m279.54,324.31s-20.06,65.31-20.06,65.31c0,0-.37,1.19-.37,1.19,0,0-1.22-.38-1.22-.38-55.32-17.16-166.54-51.82-221.77-69.18,0,0-3.21-1.01-3.21-1.01,0,0,.98-3.36.98-3.36,4.3-15.1,10.12-33.75,14.76-48.83,1.67-5.42,3.37-10.82,5.09-16.22,0,0,1.37-4.3,1.37-4.3,0,0,4.33,1.37,4.33,1.37,18.71,5.92,37.43,11.98,56.04,18.18,54.02,17.93,110.71,37.85,164.04,57.21h0Zm-.77.4c-64.91-18.54-130.71-37.78-194.88-58.33-9.09-2.88-18.15-5.85-27.22-8.83,0,0,5.7-2.92,5.7-2.92-4.92,14.91-11.1,33.43-16.25,48.35-1.84,5.36-3.73,10.71-5.63,16.05l-2.24-4.36c54.96,18.17,165.53,55.01,220.42,73.38,0,0-1.58.81-1.58.81,0,0,21.68-64.15,21.68-64.15h0Z"/>
      </g>
      <g>
        <rect class="cls-3" x="412.08" y="153" width="228.66" height="68.01" transform="translate(47.67 474.91) rotate(-50.58)"/>
        <path class="cls-4" d="m427.97,253.69s52.91,42.25,52.91,42.25l-1.78.17c35.68-44.46,107.66-133.73,143.5-178.04,0,0,.48,4.88.48,4.88-4.48-3.47-8.96-6.95-13.41-10.46-12.44-9.76-27.6-21.99-39.81-31.9,0,0,6.39-.62,6.39-.62-5.92,7.29-11.85,14.56-17.85,21.78-42.23,51.15-86.5,102.06-130.43,151.93h0Zm-.86.08c33.84-44.41,70.2-91.1,105.38-134.68,12.12-15.05,24.4-30.03,36.75-44.88,0,0,2.91-3.5,2.91-3.5l3.48,2.88c4.37,3.61,8.72,7.24,13.05,10.9,12.06,10.22,27.01,22.72,38.81,33.12,0,0,2.64,2.3,2.64,2.3l-2.16,2.58c-36.54,43.73-110.21,131.66-146.9,175.24,0,0-.83.98-.83.98,0,0-.96-.81-.96-.81,0,0-52.17-44.12-52.17-44.12h0Z"/>
      </g>
      <g>
        <rect class="cls-3" x="489.38" y="279.47" width="231.86" height="68.01" transform="translate(-66.99 200.85) rotate(-17.87)"/>
        <path class="cls-4" d="m484.93,316.88s21.68,64.15,21.68,64.15c0,0-1.58-.81-1.58-.81,54.81-18.38,165.14-55.08,220-73.25,0,0-2.24,4.36-2.24,4.36-1.9-5.34-3.79-10.69-5.63-16.05-5.19-14.94-11.34-33.41-16.25-48.35,0,0,5.71,2.92,5.71,2.92-9.05,2.97-18.1,5.93-27.17,8.81-64.05,20.51-129.72,39.72-194.52,58.22h0Zm-.77-.4c73.53-26.66,149.32-53.09,224.01-76.63,3.67,11.07,7.94,25.52,11.49,36.76,3.2,10.96,7.7,25.06,10.71,35.95,0,0-3.21,1.01-3.21,1.01-55.13,17.29-166.17,51.96-221.36,69.04,0,0-1.22.38-1.22.38l-.37-1.19-20.06-65.32h0Z"/>
      </g>
      <g>
        <path class="cls-3" d="m586.26,712.63c-1.83-37.88-25.4-69.02-41.45-102.28-24.36-50.47-31.89-110.59-21.66-167.26-23.82,2.41-47.4,7.19-70.3,14.22-12.64,3.91-26.4,9.65-31.56,21.83-3.45,8.11-2.25,17.34-.91,26.03,10.02,64.86,25.4,128.89,46.02,191.21,2.49,7.48,5.07,15.34,4.7,23.12-.04,1.46-.21,2.95-.5,4.45-1.21,6.07-4.49,11.52-7.69,16.8l-26.94,27.61c-6.86,11.31-22.2,13.89-32.43,5.49l-42.32-18.29c-.29-.21-.58-.46-.87-.71-3.78-2.87-9.94-6.49-12.26-9.81-1.04-1.58-1.25-3.12.04-4.45,10.64-14.76,16.96-32.51,20.29-50.47,3.95-21.58,3.87-43.7,3.78-65.65-.13-24.45-.25-49.02-4.78-73.01-3.2-17.13-8.81-34.05-17.75-48.98-1.5-7.03-4.24-13.6-9.81-17.88-6.82-5.24-16.05-5.65-24.65-5.82-21.24-.42-42.45-.54-63.69-.37,2.74,42.62-18.71,87.85-41.04,125.93-27.86,47.56-59.29,100.82-48.81,155.2,10.06,52.47,55.21,85.44,87.39,125.48,22.12,27.48,38.87,59.74,61.2,86.98,22.37,27.23,52.72,49.97,86.6,49.52,40.2-.58,75.17-33.68,96.58-71.34,21.41-37.67,33.05-80.7,51.68-120.03,17.96-37.83,43.2-75.42,41.16-117.49Zm0,0c-1.83-37.88-25.4-69.02-41.45-102.28-24.36-50.47-31.89-110.59-21.66-167.26-23.82,2.41-47.4,7.19-70.3,14.22-12.64,3.91-26.4,9.65-31.56,21.83-3.45,8.11-2.25,17.34-.91,26.03,10.02,64.86,25.4,128.89,46.02,191.21,2.49,7.48,5.07,15.34,4.7,23.12-.04,1.46-.21,2.95-.5,4.45-1.21,6.07-4.49,11.52-7.69,16.8l-26.94,27.61c-6.86,11.31-22.2,13.89-32.43,5.49l-42.32-18.29c-.29-.21-.58-.46-.87-.71-3.78-2.87-9.94-6.49-12.26-9.81-1.04-1.58-1.25-3.12.04-4.45,10.64-14.76,16.96-32.51,20.29-50.47,3.95-21.58,3.87-43.7,3.78-65.65-.13-24.45-.25-49.02-4.78-73.01-3.2-17.13-8.81-34.05-17.75-48.98-1.5-7.03-4.24-13.6-9.81-17.88-6.82-5.24-16.05-5.65-24.65-5.82-21.24-.42-42.45-.54-63.69-.37,2.74,42.62-18.71,87.85-41.04,125.93-27.86,47.56-59.29,100.82-48.81,155.2,10.06,52.47,55.21,85.44,87.39,125.48,22.12,27.48,38.87,59.74,61.2,86.98,22.37,27.23,52.72,49.97,86.6,49.52,40.2-.58,75.17-33.68,96.58-71.34,21.41-37.67,33.05-80.7,51.68-120.03,17.96-37.83,43.2-75.42,41.16-117.49Z"/>
        <g>
          <path class="cls-4" d="m585.83,712.66c-1.8-35.94-23.22-66.26-39.01-97.38-12.04-23.65-20.18-49.26-24.78-75.38-.13-.69-1.53-10.16-1.66-10.94-.54-4.89-1.26-10.49-1.55-15.42-1.89-23.55-.57-47.31,3.39-70.61,0,0,1.02,1.11,1.02,1.11-23.65,2.53-47.02,7.38-69.72,14.45-14.05,4.27-31.08,11.79-32.63,28.34-.87,7.57.71,15.4,1.95,23.23,10.59,66.75,27.98,132.13,49.03,196.29,3.81,14.55.78,23.59-7.03,35.88,0,0-.2.2-.2.2l-26.88,27.67s.35-.45.35-.45c-3.56,5.96-9.83,10.23-16.69,11.36-6.85,1.2-14.18-.73-19.55-5.16,0,0,.62.38.62.38l-42.37-18.19s-.32-.14-.32-.14c0,0-.18-.15-.18-.15-4.49-3.67-9.49-6-13.38-10.58-2.49-2.94-2.08-6.53-.38-8.21,5.8-8.11,10.29-17.16,13.67-26.61,10.29-28.93,9.74-59.83,9.58-90.35-.15-20.5-.44-40.95-3.37-61-2.93-20.07-8.71-39.92-19.25-57.28-.91-4.36-2.32-8.7-4.67-12.1-7.69-11.21-23.14-9.06-35.24-9.42,0,0-55.07-.17-55.07-.17,0,0,3.59-3.86,3.59-3.86.75,11.25-.15,22.51-2.14,33.49-11.66,65.79-59.9,116.55-80.66,178.7-10.32,30.24-12.16,63.12,1.42,92.62,18.11,39.98,53.62,67.01,80.32,101.29,23.01,29.18,39.42,62.08,63.48,90.1,47.4,54.28,102.28,60.42,152.22,5.03,36.42-41.19,49.32-96.34,72.34-145.18,18.01-38.99,45.4-76.85,43.74-121.55h0Zm.87-.04c2.01,44.78-25.28,83.22-42.73,122.45-22.44,49.5-34.31,105.34-70.46,147.6-43.49,50.29-96.68,57.13-147.3,11.83-24.11-21.22-42.24-52.11-60.14-78.51-17.63-27.74-40.08-50.47-62.49-74.73-14.81-16.47-29.04-34.09-38.04-54.67-19.55-43.18-8.66-88.93,11.29-129.7,23.54-48.74,58.81-92.47,68.85-146.59,2.25-11.76,2.95-23.72,1.97-35.57,0,0,3.83.03,3.83.03,0,0,55.24.47,55.24.47,11.81.27,25.2-.96,35.34,6.77,6.18,4.74,9.43,12.59,10.88,19.76,19.91,31.02,22.81,80.68,22.3,120.19.03,20.5.19,41.26-2.86,61.9-3.08,20.77-9.72,41.51-22.27,58.63-.11.12-.13.17-.12.15.01-.01,0-.06,0,0,.59,1.64,2.48,3.01,4.09,4.32,2.7,2.12,6.03,4.14,8.72,6.35,0,0-.5-.28-.5-.28l42.28,18.39.34.15c9.18,7.86,23.12,5.33,29.25-5,0,0,27.01-27.54,27.01-27.54,0,0-.34.44-.34.44,10.94-16.58,9.14-25.19,3.09-43.24-19.87-60.53-34.61-122.72-44.36-185.66-1.46-9.92-3.72-20.41-.36-30.25,4.99-14.18,20.28-20.37,33.55-24.36,22.91-6.88,46.5-11.52,70.3-13.81,0,0,1.24-.12,1.24-.12,0,0-.22,1.23-.22,1.23-5.22,28.87-6.04,58.61-2.17,87.72,3.82,29.11,12.34,57.74,25.61,83.95,15.73,31.25,37.33,61.61,39.18,97.68h0Z"/>
          <path class="cls-4" d="m585.83,712.66c-1.8-35.94-23.22-66.26-39.01-97.38-12.04-23.65-20.18-49.26-24.78-75.38-.13-.69-1.53-10.16-1.66-10.94-.54-4.89-1.26-10.49-1.55-15.42-1.89-23.55-.57-47.31,3.39-70.61,0,0,1.02,1.11,1.02,1.11-23.65,2.53-47.02,7.38-69.72,14.45-14.05,4.27-31.08,11.79-32.63,28.34-.87,7.57.71,15.4,1.95,23.23,10.59,66.75,27.98,132.13,49.03,196.29,3.81,14.55.78,23.59-7.03,35.88,0,0-.2.2-.2.2l-26.88,27.67s.35-.45.35-.45c-3.56,5.96-9.83,10.23-16.69,11.36-6.85,1.2-14.18-.73-19.55-5.16,0,0,.62.38.62.38l-42.37-18.19s-.32-.14-.32-.14c0,0-.18-.15-.18-.15-4.49-3.67-9.49-6-13.38-10.58-2.49-2.94-2.08-6.53-.38-8.21,5.8-8.11,10.29-17.16,13.67-26.61,10.29-28.93,9.74-59.83,9.58-90.35-.15-20.5-.44-40.95-3.37-61-2.93-20.07-8.71-39.92-19.25-57.28-.91-4.36-2.32-8.7-4.67-12.1-7.69-11.21-23.14-9.06-35.24-9.42,0,0-55.07-.17-55.07-.17,0,0,3.59-3.86,3.59-3.86.75,11.25-.15,22.51-2.14,33.49-11.66,65.79-59.9,116.55-80.66,178.7-10.32,30.24-12.16,63.12,1.42,92.62,18.11,39.98,53.62,67.01,80.32,101.29,23.01,29.18,39.42,62.08,63.48,90.1,47.4,54.28,102.28,60.42,152.22,5.03,36.42-41.19,49.32-96.34,72.34-145.18,18.01-38.99,45.4-76.85,43.74-121.55h0Zm.87-.04c2.01,44.78-25.28,83.22-42.73,122.45-22.44,49.5-34.31,105.34-70.46,147.6-43.49,50.29-96.68,57.13-147.3,11.83-24.11-21.22-42.24-52.11-60.14-78.51-17.63-27.74-40.08-50.47-62.49-74.73-14.81-16.47-29.04-34.09-38.04-54.67-19.55-43.18-8.66-88.93,11.29-129.7,23.54-48.74,58.81-92.47,68.85-146.59,2.25-11.76,2.95-23.72,1.97-35.57,0,0,3.83.03,3.83.03,0,0,55.24.47,55.24.47,11.81.27,25.2-.96,35.34,6.77,6.18,4.74,9.43,12.59,10.88,19.76,19.91,31.02,22.81,80.68,22.3,120.19.03,20.5.19,41.26-2.86,61.9-3.08,20.77-9.72,41.51-22.27,58.63-.11.12-.13.17-.12.15.01-.01,0-.06,0,0,.59,1.64,2.48,3.01,4.09,4.32,2.7,2.12,6.03,4.14,8.72,6.35,0,0-.5-.28-.5-.28l42.28,18.39.34.15c9.18,7.86,23.12,5.33,29.25-5,0,0,27.01-27.54,27.01-27.54,0,0-.34.44-.34.44,10.94-16.58,9.14-25.19,3.09-43.24-19.87-60.53-34.61-122.72-44.36-185.66-1.46-9.92-3.72-20.41-.36-30.25,4.99-14.18,20.28-20.37,33.55-24.36,22.91-6.88,46.5-11.52,70.3-13.81,0,0,1.24-.12,1.24-.12,0,0-.22,1.23-.22,1.23-5.22,28.87-6.04,58.61-2.17,87.72,3.82,29.11,12.34,57.74,25.61,83.95,15.73,31.25,37.33,61.61,39.18,97.68h0Z"/>
        </g>
      </g>
      <g>
        <path class="cls-6" d="m630.79,718.5c-2.7-41.91-31.51-76.67-51.35-113.71-27.02-50.56-37.75-109.51-31.14-166.43.08-2.87.17-5.74.21-8.61v-.08c.17-5.95.25-11.89.25-17.79-.54-.04-1.12-.04-1.66-.08-5.41-.29-10.73-.5-16.13-.67-75.71-2.58-151.88,3.7-227.55,9.98-26.48,2.2-53.55,4.61-79.29,10.85-.79.21-1.58.37-2.37.58.25,3.95.5,7.9.79,11.81.08.46.17.96.21,1.41v.04c8.27,49.85-18.63,103.4-46.73,148.01-32.97,52.22-70.18,110.72-56.88,171.04,8.48,38.33,35.17,67.48,63.65,95.75,14.76,14.59,30.02,28.98,43.45,44.24,27.02,30.68,47.65,66.6,74.96,97.04,27.32,30.39,64.23,55.92,105.1,55.88,48.52-.08,90.26-36.3,115.58-77.66,23.7-38.71,37.04-82.78,56.67-123.77,1.33-2.79,2.7-5.57,4.12-8.36,21.16-41.62,51.1-82.86,48.1-129.47Zm-85.69,111.63c-18.63,39.33-30.27,82.36-51.68,120.03-21.41,37.67-56.38,70.76-96.58,71.34-33.89.46-64.23-22.28-86.6-49.52-22.33-27.23-39.08-59.5-61.2-86.98-32.18-40.04-77.33-73.01-87.39-125.48-10.48-54.38,20.95-107.64,48.81-155.2,22.33-38.08,43.78-83.32,41.04-125.93,21.25-.17,42.45-.04,63.69.37,8.61.17,17.84.58,24.65,5.82,5.57,4.28,8.32,10.85,9.81,17.88,8.94,14.93,14.55,31.85,17.75,48.98,4.53,23.99,4.66,48.56,4.78,73.01.08,21.95.17,44.07-3.78,65.65-3.33,17.96-9.65,35.71-20.29,50.47-1.29,1.33-1.08,2.87-.04,4.45,15.05,6.32,32.43,7.15,48.98,7.4,8.44.17,17.05.21,25.03-2.37,7.11-2.29,13.39-6.49,19.54-10.69,9.85-6.61,19.67-13.26,29.48-19.87.37-7.77-2.2-15.63-4.7-23.12-20.62-62.32-36-126.35-46.02-191.21-1.33-8.69-2.54-17.92.91-26.03,5.16-12.18,18.92-17.92,31.56-21.83,22.91-7.03,46.48-11.81,70.3-14.22-10.23,56.67-2.7,116.79,21.66,167.26,16.05,33.26,39.62,64.4,41.45,102.28,2.04,42.07-23.2,79.66-41.16,117.49Z"/>
        <g>
          <path class="cls-4" d="m630.36,718.52c-2.63-37.8-25.76-69.4-44.28-101.1-32.2-53.37-45.83-117.28-39.08-179.22,0,0,0,.11,0,.11,0,0,.12-6.6.12-6.6.18-7.12.05-13.33.17-19.85,0,0,1.36,1.47,1.36,1.47-81.93-3.76-163.9,3.26-245.5,10.25-27.08,2.33-54.37,4.88-80.69,11.54,0,0,2-2.77,2-2.77,0,0,.82,11.77.82,11.77,0,0-.04-.29-.04-.29,0,0,.24,1.65.24,1.65,4.25,23.09-.4,51.48-8.83,74.85-18.37,53.78-56.51,97.1-79.5,148.54-10,22.26-17.32,46.26-17.1,70.79,0,12.84,2.4,25.69,6.63,37.8.47,1.25,1.96,5.02,2.47,6.35,1.73,3.99,3.87,8.44,5.95,12.29,11.18,20.26,26.68,37.47,42.94,53.88,17.43,17.64,36.15,34.38,52.79,53.5,16.66,19.09,30.84,39.87,45.55,59.9,21.52,29.63,45.74,58.76,78.48,76.18,34.01,18.37,69.31,18.89,103.26-.21,29.4-16.64,52.16-43.42,68.4-72.78,19.9-35.38,32.7-74.01,50.6-110.46,21.29-44.17,55.82-86.16,53.25-137.6h0Zm.87-.06c1.78,25.23-6.54,49.85-17.26,72.32-10.68,22.65-23.93,43.93-34.31,66.55-10.47,22.6-19.07,46.02-28.6,69.16-9.52,23.12-20.05,46.09-34.36,67.07-21.63,31.2-52.64,58.51-90.78,66.32-39.32,8.08-77.36-8.98-106.79-34.27-38.45-32.7-62.27-78.88-94.85-116.43-24.28-28.07-53.96-52.25-77.31-81.66-7.92-9.93-15.12-20.64-20.79-32.04-2.49-4.86-4.69-10.38-6.59-15.51-.5-1.5-1.68-5.36-2.19-6.9-4.81-17.02-5.8-35.07-3.27-52.54,13.18-88.24,93.34-149.55,106.04-237.81,1.76-11.96,1.76-25.82-.12-36.72,0,0-.17-1.17-.17-1.17,0,0-.03-.22-.03-.22,0-.06-.76-11.84-.76-11.9,0,0-.14-2.24-.14-2.24,27.57-7.04,55.82-9.52,83.8-11.77,81.83-6.62,164.01-13,246.14-8.29,0,0,1.39.07,1.39.07,0,0-.03,1.4-.03,1.4-.03,5.27-.34,14.93-.42,19.88,0,0-.2,6.64-.2,6.64,0,0,0,.06,0,.06-5.95,49.13.98,99.82,20.39,145.42,18.51,45.64,57.23,83.7,61.22,134.6h0Z"/>
          <path class="cls-4" d="m545.49,830.31c-24.66,51.54-36.88,110.83-76.24,154.16-36.58,40.36-83.34,51.57-129.08,17.87-23.67-17.02-40.85-41.06-56.81-65.05-10.65-15.99-20.91-32.21-32.68-47.24-23.57-30.31-54.18-54.88-74.5-87.99-11.6-18.65-18.68-40.33-18.97-62.39-.48-56.93,33.96-105.44,60.2-153.37,18.1-33.93,34-71.9,30.82-110.99,0,0,3.24.01,3.24.01,0,0,55.23.19,55.23.19,11.79.22,25.13-1.09,35.28,6.58,6.18,4.7,9.45,12.52,10.93,19.67,8.78,12.88,17.04,39.14,19.45,58.26,3.02,20.64,3.3,41.4,3.46,61.92.48,40.88.45,86.07-24.45,120.95,0,0-.37.44-.37.44-.01.02.06-.05.13-.22.08-.17.12-.42.11-.57-.03-.31-.04-.09.2.24l-1.8-1.5c14.69,6.05,31.54,6.72,47.53,6.92,10.66.22,20.93.05,30.33-5.12,9.4-5.08,31.8-21.2,41.16-27.25,0,0-1.93,3.42-1.93,3.42.29-6.44-1.77-13.28-4.1-20.26-2.35-7.1-4.68-14.25-6.91-21.4-13.44-42.92-24.34-86.65-32.63-130.86-2.77-14.76-5.27-29.47-7.48-44.4-1.92-12.44-1.13-25.67,8.8-34.89,8.68-8.39,20.8-12.18,31.75-15.37,21.76-6.26,44.12-10.45,66.65-12.59,0,0,4.76-.45,4.76-.45,0,0-.86,4.67-.86,4.67-10.4,55.76-4.05,115.2,20.35,166.67,11.88,25,27.5,48.3,35.52,75.1,16.86,53.27-14.78,98.92-37.07,144.81h0Zm-.78-.37c14.35-30.61,33.18-60.04,39.11-93.76,8.75-47.82-19.99-83.89-40.33-124.05-18.15-36.58-27.39-77.4-27.87-118.21-.18-17.21,1.09-34.46,3.99-51.47,0,0,3.9,4.22,3.9,4.22-22.06,2.38-43.85,6.86-65.1,13.19-7.1,2.11-13.98,4.35-20.07,7.68-14.23,7.71-16.69,18.27-14.19,33.64,2.25,14.61,4.79,29.35,7.6,43.94,9.82,51.16,23,101.64,39.26,151.12,2.45,7.48,4.85,15.25,4.46,23.46,0,0-.11,2.2-.11,2.2l-1.82,1.22c-10.3,6.63-31.56,21.91-42.11,27.61-10.33,5.74-23.07,6.3-34.42,5.87-17.45-.35-35.12-1.19-51.64-8.36-.61-.91-1.16-1.73-1.6-2.81-1.11-2.38-.49-5.86,1.46-7.66,0,0-.37.44-.37.44,5.76-7.97,10.26-16.89,13.67-26.24,10.4-28.77,10-59.5,9.99-89.99-.05-20.5-.23-40.92-3.05-60.97-2.81-19.88-8.4-39.57-18.68-56.86,0,0-.29-.48-.29-.48,0,0-.11-.53-.11-.53-3.01-14.95-11.08-20.44-26.14-21-9.59-.48-58.3-.47-68.75-.7,0,0,3.03-3.26,3.03-3.26,2.01,39.35-13.94,76.82-32.23,110.76-18.51,33.35-40.1,65.59-52.09,101.98-16.97,50.42-7.46,91.51,26.32,131.97,18.15,22.38,39.39,41.91,57.02,64.91,23.51,30.43,40.55,65.33,66.73,93.61,46.59,49.86,100.63,53.53,148.17,2.32,39.66-43.02,51.67-102.19,76.25-153.81h0Z"/>
        </g>
      </g>
      <g>
        <path class="cls-3" d="m471.09,719.49c-.04,1.46-.21,2.95-.5,4.45-1.21,6.07-4.49,11.52-7.69,16.8l-26.94,27.61c-6.86,11.31-22.2,13.89-32.43,5.49l-42.32-18.29c-.29-.21-.58-.46-.87-.71-3.78-2.87-9.94-6.49-12.26-9.81,15.05,6.32,32.43,7.15,48.98,7.4,8.44.17,17.05.21,25.03-2.37,7.11-2.29,13.39-6.49,19.54-10.69,9.85-6.61,19.67-13.26,29.48-19.87Z"/>
        <path class="cls-4" d="m471.3,719.11c.25.31.24.73.21,1.13-.17,7.64-4.01,14.61-7.74,21.03-.06.17-26.34,28.23-26.46,28.4,0,0,.26-.34.26-.34-1.69,2.92-4.03,5.49-6.82,7.46-2.78,1.97-6.01,3.32-9.38,3.95-6.8,1.3-14.11-.52-19.54-4.86,0,0,.63.38.63.38-14.42-5.97-28.95-11.76-43.26-17.94-.95-.77-2.38-1.76-3.4-2.43-2.11-1.44-5.17-3.38-7.17-5.04-2.45-1.99-6.7-5.69-2.9-8.89,1.14-.85,2.57-.95,3.79-.41,17.41,6.65,37.21,6.04,55.77,6.55,15.62.37,23.94-4.54,36.76-12.49,9.42-5.74,20-11.08,29.24-16.5h0Zm-.42.76c-9.22,6.88-17.02,13.88-25.9,20.67-6.81,5.21-13.77,10.47-22.01,13.33-8.3,2.86-17.56,3.11-25.97,3.02-17.07-.09-34.31-1.4-50.39-8.41,0,0,4.54-5.62,4.54-5.62.45.68,1.29,1.55,2.22,2.36,2.65,2.33,6.37,4.75,9.17,6.96,0,0,.66.56.66.56,10.6,4.55,28.45,12.83,41.48,18.69,4.4,3.68,10.16,5.71,15.94,4.78,5.6-.8,10.74-4.12,13.77-8.94.47-.36,27.33-26.95,27.78-27.26,3.23-5.12,8.09-12.68,8.44-19.83,0,0,.03-.35.03-.35v-.08c.01.09.15.15.25.12h0Z"/>
      </g>
      <g>
        <path class="cls-6" d="m548.69,402.84v.04c-.79,2.87-1.33,5.82-1.58,8.9-5.41-.29-10.73-.5-16.13-.67-75.71-2.58-151.88,3.7-227.55,9.98-26.48,2.2-53.55,4.61-79.28,10.85-.08-6.32-1.25-12.43-3.24-18.09v-.04c-1.58-49.02,3.62-98.78,35.96-134.12,30.81-33.72,79.04-45.36,124.6-50.22,24.99-2.66,50.81-3.7,74.59,4.2,41.03,13.55,69.64,52.18,82.07,93.26,7.44,24.61,10.06,50.18,10.56,75.92Z"/>
        <path class="cls-4" d="m549.13,402.83c-.78,3.07-1.42,6.2-1.64,9.38,0,0-.4-.02-.4-.02-33.71-1.82-67.5-1.41-101.21.16-20.23.99-40.43,2.42-60.61,4.01-53.4,5.32-108.1,6.43-160.47,18.27,0,0-3.35.83-3.35.83.09-7-.83-14.07-3.25-20.65-6.5-120.52,43.59-177.8,163.44-189.89,32.61-3.58,67.3-3.44,96.13,14.47,33.41,20.2,54.45,56.69,63.5,93.7,5.57,22.8,7.58,46.33,7.86,69.75h0Zm-.87,0c-.78-57.4-17.33-118.71-67.11-152.45-18.88-12.85-41.5-18.32-64.13-18.41-22.87-.09-46.19,2.74-68.71,6.9-94.42,17.95-125.92,74.1-124.68,166.17,0,0,.15,8.8.15,8.8,0,0-.16-.96-.16-.96,2.12,6.1,3.25,12.54,3.3,19.01l-3.42-2.65c26.61-6.26,53.76-8.44,80.67-10.54,53.87-4.22,107.86-7.79,161.91-8.53,27.03-.38,54.05,0,81.05,1.18l-.43.38c.29-2.83.82-6.59,1.56-8.9h0Z"/>
      </g>
      <g>
        <path class="cls-6" d="m498.47,806.58c-7.03,4.37-15.13,9.02-23.66,13.43-17.96,9.19-37.71,17.05-52.89,17.71-18.5.79-36.92-2.08-55.25-4.91-21.62-3.37-43.24-6.74-64.86-10.06-8.07-1.29-17.34-2.2-23.45,3.2-5.11,4.53-6.24,12.1-5.99,18.96,1.04,28.19,19.5,53.88,43.57,68.64,24.03,14.76,53.01,19.79,81.2,19.87,18.92.04,38.42-2.2,55.01-11.31,20-11.02,33.84-31.27,40.66-53.05,6.28-20.12,7.11-41.49,5.65-62.49Zm-27.69,66.23c-5.32,16.96-16.09,32.72-31.68,41.28-12.89,7.11-28.06,8.81-42.78,8.81-21.95-.08-44.45-3.99-63.2-15.47-18.71-11.48-33.09-31.47-33.88-53.43-.17-5.32.66-11.18,4.66-14.72,4.78-4.2,11.97-3.49,18.25-2.54,16.84,2.62,33.64,5.24,50.47,7.86,14.26,2.2,28.6,4.45,42.99,3.82,17.38-.75,42.49-13.68,59.54-24.24,1.12,16.38.5,32.97-4.37,48.6Z"/>
        <g>
          <path class="cls-4" d="m498.27,806.97c-.51.59-.88.83-1.58,1.25,0,0-2.01,1.26-2.01,1.26-4,2.44-8.22,4.99-12.27,7.25-11.05,6.24-22.47,11.87-34.4,16.28-7.51,2.73-15.25,5.01-23.24,5.9-23.85,1.85-47.64-2.73-71.14-5.92-6.62-.97-40.99-6-46.93-6.87-15.37-2.52-31.03-4.83-31.36,15.95.16,30.87,22,58.19,48.81,71.71,10.91,5.62,22.72,9.35,34.77,11.66,27.79,4.89,64.6,6.47,90.22-6.36,21.79-11.19,36.24-33.35,42.86-56.6,3.49-11.98,5.15-24.46,5.77-36.94.41-6.18.11-12.39.48-18.56h0Zm.4-.77c2.01,12.73,2.14,25.65,1.22,38.5-2.68,39.35-25.03,78.74-65.4,88.95-12.65,3.42-25.77,4.39-38.76,4.27-38.45-.19-80.05-11.31-105.58-41.85-11.07-13.09-18.98-29.41-20.47-46.68-.5-5.96-.58-11.89,1.57-17.7,4.18-11.69,15.82-13.82,26.8-12.15,5.48.77,13.31,2.15,18.83,3.03,22.12,3.51,53.04,9.03,74.85,12.02,12.39,1.41,25.01,2.74,37.41.99,18.61-3.21,35.98-11.38,52.64-20.03,4.09-2.15,8.4-4.6,12.41-6.91,0,0,2.04-1.2,2.04-1.2.67-.42,1.68-.98,2.46-1.23h0Z"/>
          <path class="cls-4" d="m471.19,872.94c-5.42,16.8-15.95,32.55-31.37,41.64-26.8,15.8-77.09,12.13-103.96-2.55-20.23-10.61-36.59-30.29-39.62-53.37-.84-7.41-.92-15.96,4.92-21.7,5.92-5.69,14.68-4.98,21.98-3.91,26.09,3.33,52.1,8.06,78.24,10.74,6.82.46,13.63.82,20.37-.23,5.72-1.04,11.27-2.57,16.82-4.59,13.29-4.71,26.04-10.95,38.36-17.88,0,0,.06,2.99.06,2.99.38,16.43-.75,33.13-5.81,48.86h0Zm-.83-.26c4.71-15.63,4.79-32.24,2.93-48.35,0,0,2.83,1.45,2.83,1.45-15.81,10.55-32.47,20.79-51.13,25.47-7.89,1.95-16.18,1.81-24.2,1.37-8.96-.52-17.83-1.82-26.63-3.22-17.42-2.77-34.79-5.84-52.18-8.79-4.23-.71-8.34-1.24-11.72-.5-11.65,2.36-7.33,21.87-4.62,29.9,5.62,16.02,17.96,29.22,32.7,37.42,22.86,12.42,50.18,15.16,75.81,12.97,28.47-2.54,47.93-20.9,56.2-47.72h0Z"/>
        </g>
      </g>
      <g>
        <path class="cls-6" d="m470.78,872.81c-5.32,16.96-16.09,32.72-31.68,41.28-12.89,7.11-28.06,8.81-42.78,8.81-21.95-.08-44.45-3.99-63.2-15.47-18.71-11.48-33.09-31.47-33.88-53.43-.17-5.32.66-11.18,4.66-14.72,4.78-4.2,11.97-3.49,18.25-2.54,16.84,2.62,33.64,5.24,50.47,7.86,14.26,2.2,28.6,4.45,42.99,3.82,17.38-.75,42.49-13.68,59.54-24.24,1.12,16.38.5,32.97-4.37,48.6Z"/>
        <path class="cls-4" d="m471.19,872.94c-5.42,16.8-15.95,32.55-31.37,41.64-26.8,15.8-77.09,12.13-103.96-2.55-20.23-10.61-36.59-30.29-39.62-53.37-.84-7.41-.92-15.96,4.92-21.7,5.92-5.69,14.68-4.98,21.98-3.91,26.09,3.33,52.1,8.06,78.24,10.74,6.82.46,13.63.82,20.37-.23,5.72-1.04,11.27-2.57,16.82-4.59,13.29-4.71,26.04-10.95,38.36-17.88,0,0,.06,2.99.06,2.99.38,16.43-.75,33.13-5.81,48.86h0Zm-.83-.26c4.71-15.63,4.79-32.24,2.93-48.35,0,0,2.83,1.45,2.83,1.45-15.81,10.55-32.47,20.79-51.13,25.47-7.89,1.95-16.18,1.81-24.2,1.37-8.96-.52-17.83-1.82-26.63-3.22-17.42-2.77-34.79-5.84-52.18-8.79-4.23-.71-8.34-1.24-11.72-.5-11.65,2.36-7.33,21.87-4.62,29.9,5.62,16.02,17.96,29.22,32.7,37.42,22.86,12.42,50.18,15.16,75.81,12.97,28.47-2.54,47.93-20.9,56.2-47.72h0Z"/>
      </g>
      <g>
        <path class="cls-5" d="m233.89,592.18c22.14-6.95,45.06-10.86,67.94-13.92,13.02-1.73,27.49-2.28,40.55,4.29,7.84,3.89,14.65,9.95,18.7,18.35,5.55,11.55,4.64,26.28-3.85,36.28-10.51,12.66-27.97,13.36-42.91,13.61-23.13.08-47.12-4.44-66.58-17.63-6.41-4.33-12.15-9.64-16.9-15.73-2.76-3.65-5.4-8.41-4.41-13.11,1.13,2.78,3.11,4.63,5.31,6.09,20.69,12.16,45.71,14.28,69.17,12.84,9.63-.84,20.4-1.55,29.64-3.99,1.28-.45,2.47-.85,3.22-1.68.14-.37.33-1.01.29-1.59-.15-6.97-9.68-10.68-16.31-11.98-4.45-.92-9.63-1.32-15.27-1.74-22.99-1.77-46.12-4.38-68.6-10.08h0Z"/>
        <path class="cls-5" d="m522.76,588.21c-10.27,3.66-20.24,7.03-30.05,11.36-5.91,2.75-13.47,5.4-16.98,10.92,0,.18-.11.34-.09.39.05.37.34.1.49-.24.02-.07.1-.11.11-.18.02-.22.07-.54.05-.73-.09-.6.44.28.9.51,1.09.8,2.11,1.15,3.63,1.57,1.92.55,4.59.92,7.75,1.22,10.86.81,19.89,2.27,29.73-.94,7.23-2.86,13.08-8.41,14.56-16.78,5.82,6.82,4.65,17.07.66,24.68-3.25,6.24-8.76,11.23-14.89,14.58-9.42,5.14-19.98,6.9-30.41,7.51-17.16,1.36-35.38-5.49-40.87-23.74-3.93-14.01,3.94-27.39,16.33-33.41,16.64-8.44,43.27-5.96,59.08,3.26h0Z"/>
      </g>
      <g>
        <path class="cls-4" d="m233.89,592.18c22.5-5.21,45.18-8.1,68.04-10.49,12.52-1.3,26.25-1.74,38.49,4.51,15.39,7.24,24.54,25.63,17.32,42.06-6.82,15.28-24.42,17.86-39.15,18.27-24.63,1.12-50.78-2.79-71.84-16.51-6.83-4.76-13.32-10-17.99-17.02-1.58-2.63-2.73-5.75-2.3-8.68.88,2.8,2.67,4.89,4.81,6.52,20.13,13.92,45.68,17.18,69.61,16.29,5.38-.32,10.75-.59,16.12-1.27,5.76-.76,12.15-1.14,17.29-3.38,4.41-1.64,5.03-6.82,3.3-10.78-3.48-7.19-11.36-10.06-19.38-11.55-4.8-.8-10.13-1.09-15.78-1.33-22.93-1.09-45.77-2.71-68.51-6.64h0Z"/>
        <path class="cls-4" d="m522.76,588.21c-12.44,2.86-23.72,5.77-35.3,10.29-3.99,1.5-8.52,3.62-11.67,6.14-1.91,1.65-4.62,3.83-3.63,6.33,3.08,5.41,10.21,5.65,16.36,6.22,11.21.58,21.46,1.61,31.4-3.13,6.83-3.75,12.24-9.47,12.94-18.74,7.09,10.91.16,25.96-9.84,32.9-9.86,7.3-23.44,9.33-34.75,9.72-14.84,1.08-31.99-4.59-36.79-20.82-2.73-8.93,1.14-19.24,8.16-24.84,15.36-12.94,45.6-11.66,63.11-4.07h0Z"/>
      </g>
      <g>
        <path class="cls-6" d="m651.88,416.52c0,29.02-23.49,52.51-52.51,52.51-24.49,0-44.98-16.71-50.85-39.29v-.08c.17-5.95.25-11.89.25-17.79,0-2.99-.04-5.99-.08-8.98v-.04c5.95-22.2,26.07-38.58,50.1-38.83h.58c14.63,0,27.86,5.99,37.34,15.63,9.4,9.44,15.17,22.49,15.17,36.88Z"/>
        <path class="cls-4" d="m652.32,416.52c-.03,25.86-19.94,50.65-46.04,54.05-26.63,4.46-54.15-13.77-60.92-40,0,0-.11-.38-.11-.38v-.44c.09-8-.02-19.42-.28-27.32,6.18-25.85,29.97-44.38,56.79-42.64,29.28,1.54,51.21,28.09,50.57,56.74h0Zm-.87,0c-.13-25.34-21.07-45.71-45.72-47.91-23.34-2.69-47.07,12.43-53.45,35.19,0,0,.13-.96.13-.96.04,3.99-.11,9.53-.22,13.46,0,0-.38,13.44-.38,13.44,4.32,15.36,16.76,30.74,35.95,35.52,31.63,8.17,64.07-15.44,63.69-48.74h0Z"/>
      </g>
      <g>
        <path class="cls-6" d="m222.78,445.74v.04c-5.74,26.19-29.1,45.78-57.04,45.78-32.26,0-58.42-26.15-58.42-58.41,0-17.5,7.69-33.22,19.92-43.9,10.27-9.06,23.74-14.51,38.5-14.51.37,0,.75,0,1.12.04,25.03.46,46.15,16.63,54.05,39.04v.04c.21,6.24.5,12.47.87,18.67.25,3.95.5,7.9.79,11.81.08.46.17.96.21,1.41Z"/>
        <path class="cls-4" d="m223.21,445.72c-7.67,34.32-43.93,56.29-77.71,44.64-53.25-18.83-55.52-91.65-4.48-115.02,25.77-11.52,57.8-3.01,73.59,21.36,3.46,5.3,6.24,11.09,7.81,17.11-.05,7.01-.07,15.88.24,22.85.06.93.34,8.48.55,9.06h0Zm-.87.04l-.22-1.35s0-.04,0-.05c-.85-9.57-1.77-20.99-2.73-30.55,0,0,.09.5.09.5-2.19-5.33-5.28-10.24-8.94-14.56-25.88-30.28-74.84-26.77-93.77,9.02-24.4,49.65,27.84,98.86,76.82,74.54,14.89-7.66,25.33-21.58,28.77-37.57h0Z"/>
      </g>
      <g>
        <path class="cls-6" d="m636.71,379.64c-9.48-9.65-22.7-15.63-37.34-15.63h-.58c-3.62-39.71-29.31-187.34-211.37-185.76-181.94,1.54-214.99,155.12-220.56,196.53-.37-.04-.75-.04-1.12-.04-14.76,0-28.23,5.45-38.5,14.51,6.15-48.15,43.95-236.44,260.06-238.36,222.27-1.95,246.75,189.25,249.41,228.75Z"/>
        <path class="cls-4" d="m636.89,380.03c-.74-.52-1.68-1.21-2.37-1.9,0,0-1.97-1.71-1.97-1.71-9.55-7.91-21.93-12.1-34.32-11.79-4.01-39.68-17.32-78.96-41.24-111.06-34.73-47.05-88.57-69.39-145.81-72.57-1.77-.14-5.71-.37-7.42-.48-4.66.04-12.75-.28-17.36-.16-7.66.31-17.14.57-24.73,1.48-11.46.95-22.93,3.11-34.15,5.61-3.44.78-10.84,3-14.3,3.91,0,0-9.33,3.23-9.33,3.23-77.36,26.94-123.37,101.97-133.81,180.6,0,0-.38,2.83-.38,2.83l-3.2-.04c-13.48-.21-26.96,4.8-37.02,13.79,0,0-6.75,5.99-6.75,5.99,10.15-95.75,60.08-190.93,152.18-229.59,48.77-20.76,103.05-25.14,155.23-19.24,66.36,7.56,125.57,38.14,163.12,94.45,24.67,36.88,38.47,80.3,43,124.23.36,2.99.47,6,.72,8.99.13.98.08,2.44-.09,3.42h0Zm-.36-.79c-.13-.48-.32-.84-.39-1.18-.06-.31-.1-.9-.15-1.37,0,0-.32-2.97-.32-2.97-3.5-29.6-11.21-58.86-23.39-86.06-33.34-75.52-95.93-119.57-177.22-129.81-47.75-5.66-97.33-2.69-142.93,13.25-94.56,32.4-148.5,123.03-161.53,218.58,0,0-5.61-2.97-5.61-2.97,11.5-10.12,26.9-15.72,42.22-15.15,0,0-3.57,2.79-3.57,2.79,7.81-53.1,30.47-105.37,69.93-142.57,34.49-32.87,80.63-50.33,127.67-54.29,7.7-.89,17.33-1.06,25.1-1.29,4.67-.04,12.88.26,17.58.32,1.75.07,5.74.45,7.52.55,43.28,2.87,87.12,16.78,120.22,45.6,40.96,35.11,62.83,88.36,67.75,141.28,0,0-.63-.57-.63-.57,10.64-.05,21.3,3.12,30.09,9.14,2.73,2.02,5.66,3.9,7.65,6.72h0Z"/>
      </g>
      <g>
        <g>
          <path class="cls-3" d="m462.61,885.32c-5.98,11.7-14.85,21.88-26.33,28.18-12.89,7.11-28.06,8.81-42.77,8.81-14.42-.06-29.07-1.76-42.74-6.18,14.33-15.55,31.07-28.38,49.82-35.05,20.29-7.22,43.09-6.68,62.01,4.25Z"/>
          <path class="cls-4" d="m459.5,885.84c-6.59,12.81-16.88,24.19-30.42,29.73-7.06,2.89-14.6,4.3-22.17,4.92-8.25.67-16.57.57-24.81-.11-9.76-.8-19.43-2.54-28.76-5.54l.29,1.1c10.65-11.53,22.82-21.94,36.84-29.16s28.53-10.42,43.8-8.68c8.92,1.02,17.6,3.85,25.39,8.31,1.15.66,2.92.16,4.07-.28.33-.12,2.87-1.33,1.84-1.92-15.03-8.61-32.68-10.94-49.66-8.21s-32.82,10.43-46.49,20.7c-7.76,5.84-14.9,12.46-21.49,19.59-.44.48-.32.9.29,1.1,17.34,5.57,36.15,7.17,54.28,5.95,17.28-1.16,34.43-6.01,47.54-17.8,6.49-5.83,11.7-13.01,15.69-20.75.56-1.09-2.18-.81-2.55-.75-1.14.19-3.07.64-3.66,1.79Z"/>
        </g>
        <g>
          <path class="cls-7" d="m340.36,844.03c-.32,2.95-.81,5.87-1.65,8.7-.84,2.75-2.14,5.52-4.39,6.82-1.65.95-3.58,1.01-5.43.92-3.03-.12-6.27-.52-8.64-2.69-2.11-1.91-3.24-4.94-3.61-8-.38-3.03-.06-6.13.23-9.19,1.76.12,3.53.35,5.23.61,6.1.95,12.19,1.91,18.26,2.83Z"/>
          <path class="cls-7" d="m373.53,849.2c-.14,2.54-.09,5.09-.23,7.63-.2,4.07-1.18,8.41-3.96,10.92-3.44,3.12-8.38,2.4-12.63,1.3-2.14-.55-4.39-1.21-5.95-2.95-2.57-2.83-2.66-7.51-1.91-11.5.52-2.98,1.44-5.95,1.73-8.96,7.34,1.13,14.65,2.25,21.99,3.41.32.06.64.09.95.14Z"/>
          <path class="cls-7" d="m410.23,852.99c.06,4.65-.9,9.33-2.77,13.47-.64,1.36-1.42,2.75-2.63,3.38-.87.46-1.82.46-2.77.49-4.88.09-10.4-.2-13.73-4.31-1.79-2.2-2.63-5.2-2.89-8.21-.17-2.25-.03-4.54.2-6.82,8.18,1.13,16.38,1.97,24.59,1.99Z"/>
          <path class="cls-7" d="m438.12,864.26c-.58.9-1.21,1.76-2.05,2.34-1.62,1.16-3.67,1.01-5.55.84-2.43-.23-5-.55-6.88-2.31-1.91-1.85-2.66-4.88-2.77-7.74-.09-1.68,0-3.38.03-5.06,6.04-.95,12.72-3.03,19.51-5.78.26.81.58,1.62.81,2.43,1.53,5.14-.26,10.92-3.09,15.29Z"/>
          <path class="cls-7" d="m466.53,850.79c-2.11,2.8-5.87,2.75-9.07,2.49-1.27-.12-2.54-.23-3.67-.81-2.95-1.5-4.13-5.49-5.03-9.05-.03-.14-.06-.29-.12-.43,5.84-2.66,11.62-5.69,16.96-8.7,1.3,3.12,2.28,6.33,2.49,9.74.14,2.4-.17,4.97-1.56,6.76Z"/>
        </g>
      </g>
      <path class="cls-4" d="m411.29,892.13c2.59,2.77,4.73,6.17,6.39,9.61.76,1.67,1.51,3.77,2.15,5.48,1.89,4.43,1.57,9.45-1.39,13.52,0,0-.58-.04-.58-.04-1.42-2.58-2.07-4.88-2.65-7.17-.62-2.26-.27-4.73-.59-7.03-.12-.88-.43-2.65-.62-3.52-.17-.88-.59-2.66-.83-3.53-.62-2.35-1.44-4.67-2.38-7l.49-.31h0Z"/>
    </g>
  </g>
</svg>